HIERARCHY
ROOT joint_Root
{
	OFFSET 0.0 0.0 0.0
	CHANNELS 6 Xposition Yposition Zposition Zrotation Xrotation Yrotation 
	JOINT Hips
	{
		OFFSET 4.5925 91.4895 -427.239
		CHANNELS 6 Xposition Yposition Zposition Zrotation Xrotation Yrotation 
		JOINT Spine
		{
			OFFSET 15.7357 0.0 0.0
			CHANNELS 6 Xposition Yposition Zposition Zrotation Xrotation Yrotation 
			JOINT Chest
			{
				OFFSET 8.98455 -0.406207 0.0
				CHANNELS 6 Xposition Yposition Zposition Zrotation Xrotation Yrotation 
				JOINT Neck
				{
					OFFSET 16.3773 0.0 0.0
					CHANNELS 6 Xposition Yposition Zposition Zrotation Xrotation Yrotation 
					JOINT Head
					{
						OFFSET 6.45672 0.0 0.0
						CHANNELS 6 Xposition Yposition Zposition Zrotation Xrotation Yrotation 
						End Site
						{
							OFFSET 0.0 0.0 0.0
						}
					}
				}
				JOINT Shoulder_L
				{
					OFFSET 12.9942 -0.242716 4.98039
					CHANNELS 6 Xposition Yposition Zposition Zrotation Xrotation Yrotation 
					JOINT UpperArm_L
					{
						OFFSET 5.34809 0.0 0.0
						CHANNELS 6 Xposition Yposition Zposition Zrotation Xrotation Yrotation 
						JOINT LowerArm_L
						{
							OFFSET 24.3286 1.87007e-05 0.0
							CHANNELS 6 Xposition Yposition Zposition Zrotation Xrotation Yrotation 
							JOINT Hand_L
							{
								OFFSET 22.2916 0.0 0.0
								CHANNELS 6 Xposition Yposition Zposition Zrotation Xrotation Yrotation 
								End Site
								{
									OFFSET 0.0 0.0 0.0
								}
							}
						}
					}
				}
				JOINT Shoulder_R
				{
					OFFSET 12.9945 -0.242716 -4.98039
					CHANNELS 6 Xposition Yposition Zposition Zrotation Xrotation Yrotation 
					JOINT UpperArm_R
					{
						OFFSET -5.34813 0.0 0.0
						CHANNELS 6 Xposition Yposition Zposition Zrotation Xrotation Yrotation 
						JOINT LowerArm_R
						{
							OFFSET -24.3289 0.000322201 0.0
							CHANNELS 6 Xposition Yposition Zposition Zrotation Xrotation Yrotation 
							JOINT Hand_R
							{
								OFFSET -22.2915 -0.000108084 0.0
								CHANNELS 6 Xposition Yposition Zposition Zrotation Xrotation Yrotation 
								End Site
								{
									OFFSET 0.0 0.0 0.0
								}
							}
						}
					}
				}
			}
		}
		JOINT UpperLeg_L
		{
			OFFSET -2.19248 -6.46944 0.0
			CHANNELS 6 Xposition Yposition Zposition Zrotation Xrotation Yrotation 
			JOINT LowerLeg_L
			{
				OFFSET 39.0811 0.0 -1.23785e-05
				CHANNELS 6 Xposition Yposition Zposition Zrotation Xrotation Yrotation 
				JOINT Foot_L
				{
					OFFSET 40.9854 0.0 -1.26872e-05
					CHANNELS 6 Xposition Yposition Zposition Zrotation Xrotation Yrotation 
					JOINT Toes_L
					{
						OFFSET 11.7543 0.0 0.0
						CHANNELS 6 Xposition Yposition Zposition Zrotation Xrotation Yrotation 
						End Site
						{
							OFFSET 0.0 0.0 0.0
						}
					}
				}
			}
		}
		JOINT UpperLeg_R
		{
			OFFSET -2.19251 6.46944 0.0
			CHANNELS 6 Xposition Yposition Zposition Zrotation Xrotation Yrotation 
			JOINT LowerLeg_R
			{
				OFFSET -39.0811 -0.00228153 -0.0401928
				CHANNELS 6 Xposition Yposition Zposition Zrotation Xrotation Yrotation 
				JOINT Foot_R
				{
					OFFSET -40.9854 0.0 0.0
					CHANNELS 6 Xposition Yposition Zposition Zrotation Xrotation Yrotation 
					JOINT Toes_R
					{
						OFFSET -11.7543 0.0 0.0
						CHANNELS 6 Xposition Yposition Zposition Zrotation Xrotation Yrotation 
						End Site
						{
							OFFSET 0.0 0.0 0.0
						}
					}
				}
			}
		}
	}
}
MOTION
Frames:	6
Frame Time:	0.0333333
0.000000 0.000000 0.000000 0.000000 0.000000 -0.000000 -0.039767 91.466100 416.930000 -88.124700 15.299600 165.936000 15.735700 0.000005 -0.000001 129.812000 78.168000 -133.207000 8.984550 -0.406207 -0.000000 11.148400 14.942900 -8.283620 16.377300 -0.000001 -0.000001 0.014403 -4.388070 -0.044748 6.456720 -0.000001 -0.000000 -10.112300 -14.844400 6.100730 12.994200 -0.242716 4.980390 -82.214900 -14.997100 -62.148200 5.348090 -0.000007 -0.000001 -76.802000 29.333600 43.218700 24.328600 0.000019 0.000005 13.649800 7.549460 -61.595200 22.291600 -0.000001 0.000005 -5.879770 5.557340 -9.059720 12.994500 -0.242716 -4.980390 91.262000 -8.416330 -81.440800 -5.348130 -0.000001 -0.000004 -54.675800 19.219500 -62.389300 -24.328900 0.000322 -0.000009 -6.292050 1.297750 -101.689000 -22.291500 -0.000108 -0.000004 22.927200 5.496680 -6.307180 -2.192480 -6.469440 -0.000000 171.355000 -13.088200 -39.486900 39.081100 -0.000007 -0.000012 -0.012193 0.030030 22.098500 40.985400 -0.000006 -0.000013 -3.554440 3.656230 -73.744600 11.754300 -0.000000 0.000003 -0.005325 -0.064589 -19.205000 -2.192510 6.469440 -0.000001 167.707000 8.141380 -169.961000 -39.081100 -0.002282 -0.040193 0.221876 -0.245368 41.698600 -40.985400 0.000008 0.000006 1.056060 11.308200 -27.157100 -11.754300 -0.000006 -0.000006 -0.019077 -0.162123 -23.195100
0.000000 0.000000 0.000000 0.000000 0.000000 -0.000000 0.332562 89.066000 408.643000 -86.655200 15.564200 166.352000 15.735700 0.000005 -0.000001 126.548000 78.531800 -129.940000 8.984550 -0.406207 -0.000000 11.301200 13.453000 -8.141250 16.377300 -0.000001 -0.000001 -0.838639 -3.417180 1.246740 6.456720 -0.000001 -0.000000 -11.015000 -13.048700 6.438590 12.994200 -0.242716 4.980390 -84.256700 -10.753100 -61.672100 5.348090 -0.000007 -0.000001 -72.863900 24.696100 38.308900 24.328600 0.000019 0.000005 10.219200 4.533280 -66.342600 22.291600 -0.000001 0.000005 -4.191670 5.540430 -8.283870 12.994500 -0.242716 -4.980390 90.940900 -6.796840 -82.100300 -5.348130 -0.000001 -0.000004 -54.317300 28.104000 -57.338500 -24.328900 0.000322 -0.000009 -18.795200 0.532433 -91.624600 -22.291500 -0.000108 -0.000004 25.781300 5.556170 -9.000320 -2.192480 -6.469440 -0.000000 168.231000 -17.805000 -44.059300 39.081100 -0.000007 -0.000012 0.818590 -1.198490 34.337500 40.985400 -0.000006 -0.000013 9.154270 -4.771250 -71.152900 11.754300 -0.000000 0.000003 -0.007574 -0.084531 -20.018600 -2.192510 6.469440 -0.000001 169.426000 4.151220 -176.594000 -39.081100 -0.002282 -0.040193 0.289889 -0.156354 61.393700 -40.985400 0.000008 0.000006 -1.419230 13.907900 -21.973000 -11.754300 -0.000006 -0.000006 -0.017797 -0.154767 -22.892500
0.000000 0.000000 0.000000 0.000000 0.000000 -0.000000 0.308596 85.679100 401.337000 -87.228200 14.090600 165.483000 15.735700 0.000005 -0.000001 119.292000 80.097600 -122.935000 8.984550 -0.406207 -0.000000 9.925940 9.562930 -8.127750 16.377300 -0.000001 -0.000001 -1.862910 -2.730900 2.442460 6.456720 -0.000001 -0.000000 -11.343400 -9.975710 6.445720 12.994200 -0.242716 4.980390 -86.952100 -6.146910 -63.585100 5.348090 -0.000007 -0.000001 -69.365600 16.538400 34.705300 24.328600 0.000019 0.000005 6.939370 2.003200 -74.006000 22.291600 -0.000001 0.000005 -0.088022 5.516180 -7.186750 12.994500 -0.242716 -4.980390 90.447300 -3.412760 -82.537600 -5.348130 -0.000001 -0.000004 -55.666300 35.869300 -49.792300 -24.328900 0.000322 -0.000009 -28.240400 -5.370070 -80.121800 -22.291500 -0.000108 -0.000004 23.167800 5.525270 -7.507350 -2.192480 -6.469440 -0.000000 166.502000 -18.745900 -49.256500 39.081100 -0.000007 -0.000012 0.496645 -0.444718 48.158100 40.985400 -0.000006 -0.000013 10.313400 -4.055990 -67.717600 11.754300 -0.000000 0.000003 -0.003665 -0.047917 -18.525700 -2.192510 6.469440 -0.000001 168.837000 4.084690 170.667000 -39.081100 -0.002282 -0.040193 0.444769 -0.033443 85.678500 -40.985400 0.000008 0.000006 -6.741480 12.905200 -12.042300 -11.754300 -0.000006 -0.000006 -0.016512 -0.147141 -22.578900
0.000000 0.000000 0.000000 0.000000 0.000000 -0.000000 0.268770 82.246000 394.042000 -89.402400 9.825630 167.178000 15.735700 0.000005 -0.000001 103.652000 80.696500 -107.273000 8.984550 -0.406207 -0.000000 10.483200 4.276190 -7.631250 16.377300 -0.000001 -0.000001 -3.659730 -2.776060 2.496180 6.456720 -0.000001 -0.000000 -10.312300 -7.565250 5.958210 12.994200 -0.242716 4.980390 -90.475200 1.333810 -70.000500 5.348090 -0.000007 -0.000001 -63.854200 6.842580 29.950400 24.328600 0.000019 0.000005 1.259860 0.094788 -86.284200 22.291600 -0.000001 0.000005 3.207820 5.522710 -7.472040 12.994500 -0.242716 -4.980390 89.814400 1.811780 -84.114100 -5.348130 -0.000001 -0.000004 -62.128500 36.712900 -33.897700 -24.328900 0.000322 -0.000009 -21.689900 -9.532190 -67.356100 -22.291500 -0.000108 -0.000004 18.740600 5.487880 -6.078740 -2.192480 -6.469440 -0.000000 166.929000 -13.138600 -47.385700 39.081100 -0.000007 -0.000012 -0.075806 0.043918 59.916900 40.985400 -0.000006 -0.000013 8.624640 -7.081180 -78.288200 11.754300 -0.000000 0.000003 -0.000002 -0.000036 -16.578900 -2.192510 6.469440 -0.000001 167.764000 5.348390 158.994000 -39.081100 -0.002282 -0.040193 0.450562 0.145106 107.986000 -40.985400 0.000008 0.000006 -8.818640 12.353500 -6.568090 -11.754300 -0.000006 -0.000006 -0.015137 -0.138675 -22.231200
0.000000 0.000000 0.000000 0.000000 0.000000 -0.000000 -0.023006 79.920400 386.592000 -92.544600 5.823850 169.659000 15.735700 0.000005 -0.000001 93.752400 79.842600 -97.656700 8.984550 -0.406207 -0.000000 12.558900 1.153570 -7.935040 16.377300 -0.000001 -0.000001 -5.879240 -4.143590 1.324910 6.456720 -0.000001 -0.000000 -9.034480 -7.294120 7.049510 12.994200 -0.242716 4.980390 -92.102600 7.497770 -74.282900 5.348090 -0.000007 -0.000001 -60.674000 4.390480 8.497690 24.328600 0.000019 0.000005 -7.035410 0.328808 -92.653800 22.291600 -0.000001 0.000005 4.986240 5.544940 -8.457370 12.994500 -0.242716 -4.980390 89.092900 8.840690 -84.123300 -5.348130 -0.000001 -0.000004 -65.783400 28.718500 -15.129700 -24.328900 0.000322 -0.000009 -16.298500 -12.828500 -52.846400 -22.291500 -0.000108 -0.000004 19.446300 5.567950 -9.570330 -2.192480 -6.469440 -0.000000 165.082000 -10.428800 -40.756000 39.081100 -0.000007 -0.000012 -0.257222 0.121266 64.759900 40.985400 -0.000006 -0.000013 8.217030 -7.396990 -86.754900 11.754300 -0.000000 0.000003 -0.000062 -0.000683 -16.604000 -2.192510 6.469440 -0.000001 165.418000 4.623110 145.377000 -39.081100 -0.002282 -0.040193 0.257147 0.176942 124.895000 -40.985400 0.000008 0.000006 -11.696100 12.162000 -0.567565 -11.754300 -0.000006 -0.000006 -0.015575 -0.141411 -22.343600
0.000000 0.000000 0.000000 0.000000 0.000000 -0.000000 0.555385 78.533800 378.771000 -92.184600 -1.092130 170.700000 15.735700 0.000005 -0.000001 85.664200 79.559500 -88.415800 8.984550 -0.406207 -0.000000 13.024300 -1.688750 -5.310810 16.377300 -0.000001 -0.000001 -5.333390 -5.285320 1.103040 6.456720 -0.000001 -0.000000 -8.688240 -6.639640 7.462940 12.994200 -0.242716 4.980390 -91.845100 7.656860 -76.420100 5.348090 -0.000007 -0.000001 -62.901600 7.882550 -19.826400 24.328600 0.000019 0.000005 0.576385 -0.074306 -96.441000 22.291600 -0.000001 0.000005 4.047190 5.543410 -8.399290 12.994500 -0.242716 -4.980390 88.598100 9.129300 -81.230100 -5.348130 -0.000001 -0.000004 -67.308100 26.515900 -0.168469 -24.328900 0.000322 -0.000009 -19.949100 -28.330900 -37.424600 -22.291500 -0.000108 -0.000004 20.988500 5.452080 -4.632670 -2.192480 -6.469440 -0.000000 168.084000 -7.775130 -32.766500 39.081100 -0.000007 -0.000012 -0.249994 0.109126 66.419100 40.985400 -0.000006 -0.000013 8.174090 -4.861600 -94.121400 11.754300 -0.000000 0.000003 -0.000097 -0.001007 -16.616200 -2.192510 6.469440 -0.000001 168.278000 6.866660 131.464000 -39.081100 -0.002282 -0.040193 0.167802 0.159082 134.063000 -40.985400 0.000008 0.000006 -10.778800 10.154700 1.765160 -11.754300 -0.000006 -0.000006 -0.014823 -0.136703 -22.150300
